#!OML:ASF E:\motion texture\Top Level 1\Subject 1\Session 1\male.ASF
:FULLY-SPECIFIED
:DEGREES
634
root -31.0805 17.8995 4.29799 224.047 -85.9814 -218.174
lowerback -0.790832 -0.98795 -2.15904
upperback -4.26536 -1.38965 1.19432
thorax -3.86977 -0.627124 2.47867
lowerneck -16.2951 5.46128 -3.37496
upperneck 5.61831 9.35248 -18.5516
head 5.23771 2.96728 -4.43651
rclavicle -1.22004e-014 3.18055e-015
rhumerus -39.6666 -11.0504 -77.2861
rradius 17.2715
rwrist 22.8354
rhand -2.29073 -26.9628
rfingers 7.12502
rthumb 23.3945 -55.5608
lclavicle -1.22004e-014 3.18055e-015
lhumerus 69.9881 25.3826 63.0361
lradius 82.1603
lwrist 9.47136
lhand -23.1322 27.3955
lfingers 7.12502
lthumb 3.31543 57.3494
rfemur -32.53 -2.32323 15.203
rtibia 23.2294
rfoot -1.95092 -16.5462
rtoes 9.50469
lfemur 0.592214 -1.7637 -23.7206
ltibia 18.5697
lfoot -14.0854 2.26899
ltoes -13.9445
635
root -31.2137 17.8951 4.26915 225.147 -86.1345 -219.159
lowerback -0.81645 -1.00717 -2.0482
upperback -4.29588 -1.41407 1.20834
thorax -3.88747 -0.642873 2.43147
lowerneck -16.2483 5.41475 -3.40453
upperneck 5.62298 9.28455 -18.4434
head 5.21713 2.94631 -4.40486
rclavicle 5.09386e-015 -6.36111e-015
rhumerus -40.3838 -12.8834 -76.0493
rradius 16.6205
rwrist 24.4499
rhand -2.01927 -26.7404
rfingers 7.12502
rthumb 23.6549 -55.305
lclavicle 5.09386e-015 -6.36111e-015
lhumerus 70.7553 25.6363 64.5318
lradius 83.051
lwrist 9.57502
lhand -23.2397 26.6603
lfingers 7.12502
lthumb 3.21159 56.6159
rfemur -32.4386 -2.16447 15.2044
rtibia 22.6014
rfoot -1.83664 -16.6189
rtoes 9.65824
lfemur 0.683677 -1.83821 -23.5932
ltibia 18.9896
lfoot -14.0762 2.24842
ltoes -14.751
636
root -31.3475 17.8911 4.23962 226.161 -86.2979 -220.07
lowerback -0.842729 -1.02303 -1.92338
upperback -4.32475 -1.43366 1.22602
thorax -3.90365 -0.656711 2.38006
lowerneck -16.2044 5.36519 -3.43135
upperneck 5.6387 9.21423 -18.3306
head 5.20024 2.92363 -4.37241
rclavicle -3.08116e-015 -7.95139e-016
rhumerus -41.1272 -14.5945 -74.7994
rradius 16.0411
rwrist 26.0344
rhand -1.7256 -26.5014
rfingers 7.12502
rthumb 23.9366 -55.0294
lclavicle -3.08116e-015 -7.95139e-016
lhumerus 71.357 25.7948 65.8822
lradius 83.9402
lwrist 9.6994
lhand -23.3133 25.9528
lfingers 7.12502
lthumb 3.14051 55.9095
rfemur -32.3268 -2.02644 15.2366
rtibia 22.068
rfoot -1.7301 -16.6788
rtoes 9.82322
lfemur 0.75889 -1.91248 -23.4443
ltibia 19.4573
lfoot -14.038 2.22725
ltoes -15.5568
637
root -31.4819 17.8873 4.20941 227.081 -86.4721 -220.901
lowerback -0.870293 -1.03568 -1.78538
upperback -4.35153 -1.44866 1.24733
thorax -3.91744 -0.668739 2.32484
lowerneck -16.1672 5.31307 -3.45451
upperneck 5.66638 9.14252 -18.2142
head 5.18817 2.89938 -4.33946
rclavicle 2.93456e-014 -1.27222e-014
rhumerus -41.8835 -16.1627 -73.5624
rradius 15.5312
rwrist 27.5582
rhand -1.40805 -26.2499
rfingers 7.12502
rthumb 24.241 -54.7376
lclavicle 2.93456e-014 -1.27222e-014
lhumerus 71.7906 25.8673 67.0835
lradius 84.8173
lwrist 9.8379
lhand -23.3508 25.2859
lfingers 7.12502
lthumb 3.10436 55.243
rfemur -32.1955 -1.91108 15.3012
rtibia 21.626
rfoot -1.63287 -16.7252
rtoes 10.0027
lfemur 0.815232 -1.98527 -23.2732
ltibia 19.9748
lfoot -13.9659 2.20496
ltoes -16.3537
638
root -31.6171 17.8839 4.1786 227.905 -86.6565 -221.647
lowerback -0.899596 -1.04485 -1.63486
upperback -4.37672 -1.45873 1.27211
thorax -3.92912 -0.678771 2.26601
lowerneck -16.1343 5.25868 -3.47687
upperneck 5.70595 9.06989 -18.0916
head 5.18025 2.87407 -4.30471
rclavicle 5.76476e-015 -4.77083e-015
rhumerus -42.6401 -17.5754 -72.3599
rradius 15.0867
rwrist 29.0017
rhand -1.07363 -25.9851
rfingers 7.12502
rthumb 24.5616 -54.4296
lclavicle 5.76476e-015 -4.77083e-015
lhumerus 72.0522 25.8583 68.1357
lradius 85.674
lwrist 9.98445
lhand -23.3574 24.6613
lfingers 7.12502
lthumb 3.09792 54.6186
rfemur -32.0449 -1.82341 15.3999
rtibia 21.2718
rfoot -1.54651 -16.7537
rtoes 10.1836
lfemur 0.852192 -2.05535 -23.0814
ltibia 20.5419
lfoot -13.8568 2.17955
ltoes -17.1285
639
root -31.7528 17.8809 4.1472 228.586 -86.8513 -222.264
lowerback -0.931075 -1.04958 -1.47144
upperback -4.39987 -1.46261 1.301
thorax -3.93799 -0.686183 2.20396
lowerneck -16.1056 5.2018 -3.4996
upperneck 5.75633 8.99597 -17.963
head 5.17606 2.84755 -4.26809
rclavicle -8.49804e-015 -1.59028e-015
rhumerus -43.3812 -18.8218 -71.2152
rradius 14.7037
rwrist 30.3421
rhand -0.726133 -25.7111
rfingers 7.12502
rthumb 24.8947 -54.1099
lclavicle -8.49804e-015 -1.59028e-015
lhumerus 72.1451 25.7768 69.0379
lradius 86.4995
lwrist 10.1361
lhand -23.3369 24.0871
lfingers 7.12502
lthumb 3.11776 54.044
rfemur -31.8753 -1.76307 15.5351
rtibia 21.0012
rfoot -1.47248 -16.7629
rtoes 10.3685
lfemur 0.86837 -2.12029 -22.8667
ltibia 21.16
lfoot -13.7071 2.14965
ltoes -17.8739
640
root -31.8891 17.8784 4.11522 229.101 -87.0575 -222.727
lowerback -0.96401 -1.05009 -1.29506
upperback -4.42097 -1.4606 1.33419
thorax -3.94442 -0.691122 2.13891
lowerneck -16.0823 5.1423 -3.52001
upperneck 5.81823 8.92058 -17.8324
head 5.17639 2.8194 -4.23128
rclavicle 2.04003e-014 -1.03368e-014
rhumerus -44.0887 -19.891 -70.1538
rradius 14.3761
rwrist 31.5574
rhand -0.371532 -25.4296
rfingers 7.12502
rthumb 25.2345 -53.781
lclavicle 2.04003e-014 -1.03368e-014
lhumerus 72.0685 25.6249 69.7899
lradius 87.2843
lwrist 10.2788
lhand -23.2981 23.5681
lfingers 7.12502
lthumb 3.15527 53.5245
rfemur -31.6861 -1.73217 15.7081
rtibia 20.8093
rfoot -1.41417 -16.7504
rtoes 10.5487
lfemur 0.862533 -2.17972 -22.6282
ltibia 21.8294
lfoot -13.5113 2.11378
ltoes -18.5749
